<svg xmlns="http://www.w3.org/2000/svg" viewBox="0 0 533.5 544.3" width="18" height="18" role="img" aria-labelledby="googleLogoTitle">
  <title id="googleLogoTitle">Google</title>
  <path fill="#4285F4" d="M533.5 278.4c0-17.4-1.5-34.1-4.3-50.4H272v95.4h147.9c-6.4 34.1-26.2 62.9-55.8 82v68.2h90.2c52.8-48.6 83.2-120.4 83.2-195.2z"/>
  <path fill="#34A853" d="M272 544.3c73.5 0 135.3-24.3 180.4-66.1l-90.2-68.2c-25.1 17-57.2 27-90.2 27-69 0-127.5-46.6-148.4-109.1H31.6v68.6C76.7 483.7 168.9 544.3 272 544.3z"/>
  <path fill="#FBBC05" d="M123.6 329.6c-9.8-29.1-9.8-60.5 0-89.6V171.4H31.6C11 214.8 0 250.5 0 287.9s11 73.1 31.6 116.5l92-74.8z"/>
  <path fill="#EA4335" d="M272 109.8c38.8 0 73.6 13.4 101.1 39.6l75.9-75.9C407.3 24.1 345.5 0 272 0 168.9 0 76.7 60.6 31.6 171.4l92 74.8C144.5 156.4 203 109.8 272 109.8z"/>
</svg>
